<?xml version="1.0" encoding="UTF-8"?>
<svg xmlns="http://www.w3.org/2000/svg" xmlns:xlink="http://www.w3.org/1999/xlink" viewBox="5 38 240 68" role="img" aria-label="Astonea">
<path fill-rule="evenodd" fill="rgb(0%, 39.215088%, 63.922119%)" fill-opacity="1" d="M 112.175781 47.917969 C 107.105469 48.6875 102.410156 50.304688 99.148438 54.171875 C 89.847656 65.191406 93.976562 87.957031 115.570312 86.453125 C 126.96875 85.660156 133.527344 76.773438 132.996094 65.386719 C 132.816406 61.535156 131.648438 57.625 129.40625 54.65625 C 129.023438 54.152344 128.699219 53.828125 128.316406 53.34375 C 127.652344 52.503906 127.703125 52.742188 126.953125 52.089844 C 123.675781 49.234375 117.972656 47.035156 112.175781 47.917969 Z M 113.132812 50.34375 C 108.488281 51.054688 106.089844 53.058594 104.222656 56.191406 C 99.375 64.332031 99.953125 85.042969 114.742188 84.210938 C 129.757812 83.363281 130.417969 47.703125 113.132812 50.34375 "/>
<path fill-rule="evenodd" fill="rgb(0%, 39.215088%, 63.922119%)" fill-opacity="1" d="M 203.046875 81.753906 C 201.515625 79.5 196.859375 82.414062 194.699219 83 C 188.742188 84.613281 182.3125 81.847656 179.589844 76.425781 C 178.65625 74.558594 176.925781 69.597656 177.933594 67.074219 C 180.601562 66.304688 200.828125 67.523438 205.007812 67.15625 C 205.636719 56.859375 201.183594 49.453125 191.851562 48.019531 C 174.929688 45.414062 168.101562 61.46875 171.800781 74.175781 C 177.230469 92.828125 201.730469 85.757812 203.046875 81.753906 Z M 177.949219 64.058594 L 197.625 64.074219 C 199.101562 64.078125 199.421875 64.054688 198.433594 59.296875 C 197.960938 57.011719 197.28125 54.710938 195.894531 53.148438 C 192.949219 49.84375 187.65625 49.246094 183.320312 51.984375 C 179.988281 54.089844 177.660156 60.796875 177.949219 64.058594 "/>
<path fill-rule="evenodd" fill="rgb(0%, 39.215088%, 63.922119%)" fill-opacity="1" d="M 210.460938 52.3125 C 212.285156 55.71875 215.203125 51.085938 220.5 51.003906 C 228.441406 50.886719 230.808594 58 229.71875 61.992188 C 229.269531 63.644531 227.519531 64.464844 225.601562 64.859375 C 218.96875 66.210938 209.09375 66.023438 207.28125 73.761719 C 206.28125 78.027344 207.425781 82.085938 210.089844 84.089844 C 215.378906 88.074219 222.445312 87.335938 227.859375 82.792969 C 228.632812 82.144531 228.976562 81.664062 229.925781 81.253906 C 230.519531 86.976562 236.894531 86.308594 240.296875 84.804688 L 240.285156 83.164062 C 234.957031 83.539062 236.007812 83.992188 236.007812 70.414062 C 236.007812 65.890625 236.257812 57.472656 234.695312 54.046875 C 232.902344 50.117188 228.9375 47.796875 223.550781 47.707031 C 219.640625 47.644531 211.761719 50.035156 210.460938 52.3125 Z M 229.664062 66.472656 C 226.261719 66.570312 219.007812 68.492188 216.582031 69.984375 C 212.984375 72.199219 212.050781 78.050781 215.382812 81.414062 C 218.753906 84.820312 224.144531 83.5625 227.058594 80.683594 C 229.242188 78.523438 229.683594 79.332031 229.675781 74.992188 C 229.667969 72.160156 229.714844 69.300781 229.664062 66.472656 "/>
<path fill-rule="evenodd" fill="rgb(0%, 39.215088%, 63.922119%)" fill-opacity="1" d="M 13.738281 52.3125 C 15.539062 55.695312 18.171875 51.203125 23.808594 51.007812 C 31.191406 50.753906 34.140625 57.507812 32.988281 61.976562 C 31.425781 68.054688 13.457031 62.601562 10.535156 73.734375 C 7.421875 85.609375 22 90.8125 31.171875 82.800781 C 31.867188 82.191406 32.207031 81.714844 33.199219 81.28125 C 33.707031 86.617188 39.25 86.457031 43.613281 84.808594 L 43.644531 83.21875 L 40.085938 83.324219 C 38.769531 81.523438 39.15625 78.851562 39.15625 76.082031 C 39.15625 69.449219 40.050781 57.707031 37.453125 53.0625 C 35.105469 48.867188 30.722656 47.832031 25.972656 47.820312 C 22.035156 47.8125 14.820312 50.296875 13.738281 52.3125 Z M 32.886719 66.457031 C 30.738281 66.257812 22.523438 68.339844 19.871094 69.898438 C 16.210938 72.050781 15.316406 78.027344 18.679688 81.339844 C 23.105469 85.707031 29.140625 82.503906 32.433594 78.523438 C 33.285156 77.488281 33.035156 72.3125 32.953125 70.769531 C 32.875 69.308594 33.0625 67.785156 32.886719 66.457031 "/>
<path fill-rule="evenodd" fill="rgb(0%, 39.215088%, 63.922119%)" fill-opacity="1" d="M 142.316406 55.070312 C 142.257812 50.050781 140.859375 48.792969 136.164062 48.253906 C 135.640625 50.0625 136.007812 63.902344 136.007812 66.925781 C 136.003906 73.300781 136.007812 79.675781 136.007812 86.050781 C 144.214844 85.664062 142.460938 77.992188 142.460938 69.324219 C 142.460938 61.921875 142.792969 54.753906 148.703125 52.488281 C 151.382812 51.457031 156.011719 51.5625 157.914062 53.394531 C 160.078125 55.480469 161.007812 57.558594 161.425781 61.457031 C 162.039062 67.222656 161.023438 80.546875 161.65625 84.304688 C 164.121094 84.5 167.105469 82.992188 167.628906 81.015625 C 168.132812 79.109375 167.894531 74.035156 167.894531 71.722656 C 167.902344 60.039062 169.449219 46.882812 154.027344 47.839844 C 151.230469 48.015625 148.960938 48.832031 146.917969 50.261719 C 145.839844 51.019531 145.1875 51.59375 144.382812 52.523438 C 143.878906 53.113281 143.015625 54.859375 142.316406 55.070312 "/>
<path fill-rule="evenodd" fill="rgb(0%, 39.215088%, 63.922119%)" fill-opacity="1" d="M 47.785156 78.707031 C 47.0625 79.207031 45.851562 83.183594 45.601562 84.222656 C 52.890625 88.34375 68.40625 87.917969 69.917969 75.304688 C 71.597656 61.285156 49.863281 66.972656 51.339844 56.089844 C 52.160156 50.039062 59.75 47.695312 64.183594 53.578125 C 64.859375 54.472656 64.699219 55.109375 65.667969 55.351562 C 66.3125 54.863281 67.75 50.6875 67.617188 49.695312 C 61.734375 46.667969 52.621094 47.128906 48.589844 52.023438 C 46.328125 54.765625 45.609375 57.542969 46.265625 61.886719 C 46.835938 65.6875 49.253906 67.269531 52.550781 68.496094 C 54.699219 69.292969 60.425781 70.8125 61.921875 71.757812 C 68.015625 75.613281 63.242188 85.882812 55.246094 84.125 C 53.449219 83.730469 52.285156 82.976562 51.0625 81.96875 C 49.042969 80.304688 48.894531 78.917969 47.785156 78.707031 "/>
<path fill-rule="evenodd" fill="rgb(0%, 39.215088%, 63.922119%)" fill-opacity="1" d="M 76.824219 48.1875 L 72.0625 48.234375 L 72.011719 51.21875 L 76.777344 51.273438 C 77.28125 55.550781 76.632812 65.003906 76.832031 70.847656 C 77 75.886719 75.75 83.3125 81.414062 85.859375 C 84.769531 87.363281 89.375 86.304688 92.503906 85.269531 C 92.019531 83.917969 90.472656 84.148438 88.554688 83.960938 C 83.277344 83.441406 83.167969 77.925781 83.167969 73.03125 C 83.164062 68.347656 82.941406 54.949219 83.199219 51.308594 C 85.449219 51.140625 89.488281 51.722656 91.289062 51.121094 C 91.3125 51.0625 91.335938 50.910156 91.34375 50.9375 C 91.351562 50.964844 91.382812 50.800781 91.394531 50.75 C 91.402344 50.699219 91.425781 50.621094 91.433594 50.554688 L 91.320312 48.265625 L 83.191406 48.203125 C 82.972656 43.941406 82.046875 40.074219 76.898438 40.425781 Z M 76.824219 48.1875 "/>
<path fill-rule="evenodd" fill="rgb(83.529663%, 67.451477%, 25.881958%)" fill-opacity="1" d="M 125.511719 101.941406 C 127.023438 102.269531 129.566406 100.296875 130.945312 99.484375 C 142.226562 92.867188 158.160156 90.308594 171.199219 92.867188 C 172.121094 93.050781 177.457031 94.25 177.609375 94.183594 C 165.617188 88.769531 147.734375 88.65625 134.890625 94.292969 C 132.285156 95.4375 124.871094 98.855469 125.511719 101.941406 "/>
</svg>
