<svg xmlns="http://www.w3.org/2000/svg" viewBox="0 0 1080 1080" shape-rendering="geometricPrecision" fill-rule="evenodd" clip-rule="evenodd">
  <style>
    .mark { fill: #0063A1; }
    @media (prefers-color-scheme: dark) {
      .mark { fill: #FEFEFE; }
    }
  </style>
  <path class="mark" d="M221.91 178.73c43.58,81.91 107.33,-26.84 243.8,-31.57 178.76,-6.2 250.1,157.33 222.28,265.48 -37.87,147.2 -472.9,15.13 -543.56,284.65 -75.39,287.52 277.5,413.44 499.5,219.54 16.92,-14.78 25.08,-26.32 49.11,-36.78 12.34,129.14 146.53,125.23 252.13,85.39l0.77 -38.52 -86.16 2.52c-31.89,-43.56 -22.52,-108.27 -22.53,-175.27 0,-160.56 21.68,-444.86 -41.24,-557.33 -56.8,-101.53 -162.93,-126.61 -277.92,-126.84 -95.35,-0.2 -270.01,59.94 -296.18,108.73zm463.53 342.38c-51.99,-4.77 -250.87,45.64 -315,83.35 -88.61,52.1 -110.3,196.77 -28.92,277.02 107.21,105.72 253.27,28.11 332.95,-68.21 20.71,-25.04 14.62,-150.36 12.65,-187.73 -1.87,-35.36 2.65,-72.24 -1.68,-104.43z"/>
</svg>
